<mxfile host="app.diagrams.net" agent="Mozilla/5.0 (Windows NT 10.0; Win64; x64) AppleWebKit/537.36 (KHTML, like Gecko) Chrome/130.0.0.0 Safari/537.36" version="24.8.4">
  <diagram name="Page-1" id="AjuHt0aEQNPAkVth76bw">
    <mxGraphModel dx="1235" dy="614" grid="1" gridSize="10" guides="1" tooltips="1" connect="1" arrows="1" fold="1" page="1" pageScale="1" pageWidth="850" pageHeight="1100" math="0" shadow="0">
      <root>
        <mxCell id="0" />
        <mxCell id="1" parent="0" />
        <mxCell id="oXb5ELOSUNkqxSrLmmbT-1" style="edgeStyle=none;rounded=0;orthogonalLoop=1;jettySize=auto;html=1;exitX=1;exitY=0.5;exitDx=0;exitDy=0;fontSize=18;" edge="1" parent="1" source="oXb5ELOSUNkqxSrLmmbT-2" target="oXb5ELOSUNkqxSrLmmbT-4">
          <mxGeometry relative="1" as="geometry" />
        </mxCell>
        <mxCell id="oXb5ELOSUNkqxSrLmmbT-2" value="" style="ellipse;whiteSpace=wrap;html=1;fontSize=18;fillColor=#000000;" vertex="1" parent="1">
          <mxGeometry x="80" y="115" width="30" height="30" as="geometry" />
        </mxCell>
        <mxCell id="oXb5ELOSUNkqxSrLmmbT-23" value="" style="edgeStyle=orthogonalEdgeStyle;rounded=0;orthogonalLoop=1;jettySize=auto;html=1;" edge="1" parent="1" source="oXb5ELOSUNkqxSrLmmbT-4" target="oXb5ELOSUNkqxSrLmmbT-22">
          <mxGeometry relative="1" as="geometry" />
        </mxCell>
        <mxCell id="oXb5ELOSUNkqxSrLmmbT-4" value="Входит в свой аккаунт" style="rounded=0;whiteSpace=wrap;html=1;fontSize=18;" vertex="1" parent="1">
          <mxGeometry x="150" y="100" width="155" height="60" as="geometry" />
        </mxCell>
        <mxCell id="oXb5ELOSUNkqxSrLmmbT-25" value="" style="edgeStyle=orthogonalEdgeStyle;rounded=0;orthogonalLoop=1;jettySize=auto;html=1;" edge="1" parent="1" source="oXb5ELOSUNkqxSrLmmbT-22" target="oXb5ELOSUNkqxSrLmmbT-24">
          <mxGeometry relative="1" as="geometry" />
        </mxCell>
        <mxCell id="oXb5ELOSUNkqxSrLmmbT-22" value="Выбирает опцию &quot;Добавить тест&quot;" style="rounded=0;whiteSpace=wrap;html=1;fontSize=18;" vertex="1" parent="1">
          <mxGeometry x="340" y="95" width="170" height="70" as="geometry" />
        </mxCell>
        <mxCell id="oXb5ELOSUNkqxSrLmmbT-27" value="" style="edgeStyle=orthogonalEdgeStyle;rounded=0;orthogonalLoop=1;jettySize=auto;html=1;" edge="1" parent="1" source="oXb5ELOSUNkqxSrLmmbT-24" target="oXb5ELOSUNkqxSrLmmbT-26">
          <mxGeometry relative="1" as="geometry" />
        </mxCell>
        <mxCell id="oXb5ELOSUNkqxSrLmmbT-24" value="Вводит данные теста" style="rounded=0;whiteSpace=wrap;html=1;fontSize=18;" vertex="1" parent="1">
          <mxGeometry x="546.25" y="95" width="170" height="70" as="geometry" />
        </mxCell>
        <mxCell id="oXb5ELOSUNkqxSrLmmbT-32" style="edgeStyle=orthogonalEdgeStyle;rounded=0;orthogonalLoop=1;jettySize=auto;html=1;entryX=0.5;entryY=0;entryDx=0;entryDy=0;" edge="1" parent="1" source="oXb5ELOSUNkqxSrLmmbT-26" target="oXb5ELOSUNkqxSrLmmbT-30">
          <mxGeometry relative="1" as="geometry" />
        </mxCell>
        <mxCell id="oXb5ELOSUNkqxSrLmmbT-33" value="Нет" style="edgeLabel;html=1;align=center;verticalAlign=middle;resizable=0;points=[];fontSize=16;" vertex="1" connectable="0" parent="oXb5ELOSUNkqxSrLmmbT-32">
          <mxGeometry x="-0.3599" y="-2" relative="1" as="geometry">
            <mxPoint as="offset" />
          </mxGeometry>
        </mxCell>
        <mxCell id="oXb5ELOSUNkqxSrLmmbT-37" style="edgeStyle=orthogonalEdgeStyle;rounded=0;orthogonalLoop=1;jettySize=auto;html=1;entryX=1;entryY=0.5;entryDx=0;entryDy=0;" edge="1" parent="1" source="oXb5ELOSUNkqxSrLmmbT-26" target="oXb5ELOSUNkqxSrLmmbT-29">
          <mxGeometry relative="1" as="geometry" />
        </mxCell>
        <mxCell id="oXb5ELOSUNkqxSrLmmbT-40" value="" style="edgeStyle=orthogonalEdgeStyle;rounded=0;orthogonalLoop=1;jettySize=auto;html=1;" edge="1" parent="1" source="oXb5ELOSUNkqxSrLmmbT-26" target="oXb5ELOSUNkqxSrLmmbT-29">
          <mxGeometry relative="1" as="geometry" />
        </mxCell>
        <mxCell id="oXb5ELOSUNkqxSrLmmbT-44" value="Да" style="edgeLabel;html=1;align=center;verticalAlign=middle;resizable=0;points=[];fontSize=16;" vertex="1" connectable="0" parent="oXb5ELOSUNkqxSrLmmbT-40">
          <mxGeometry x="-0.183" y="-1" relative="1" as="geometry">
            <mxPoint as="offset" />
          </mxGeometry>
        </mxCell>
        <mxCell id="oXb5ELOSUNkqxSrLmmbT-26" value="Хочет прикрепить файл" style="rhombus;whiteSpace=wrap;html=1;fontSize=18;rounded=0;" vertex="1" parent="1">
          <mxGeometry x="558.43" y="200" width="145.63" height="90" as="geometry" />
        </mxCell>
        <mxCell id="oXb5ELOSUNkqxSrLmmbT-46" style="edgeStyle=orthogonalEdgeStyle;rounded=0;orthogonalLoop=1;jettySize=auto;html=1;entryX=1;entryY=0.5;entryDx=0;entryDy=0;" edge="1" parent="1" source="oXb5ELOSUNkqxSrLmmbT-29" target="oXb5ELOSUNkqxSrLmmbT-45">
          <mxGeometry relative="1" as="geometry" />
        </mxCell>
        <mxCell id="oXb5ELOSUNkqxSrLmmbT-29" value="&lt;span style=&quot;font-size: 18px;&quot;&gt;Нажимает кнопку &quot;Прикрепить файл&quot;&lt;/span&gt;" style="rounded=0;whiteSpace=wrap;html=1;" vertex="1" parent="1">
          <mxGeometry x="340" y="215" width="170" height="60" as="geometry" />
        </mxCell>
        <mxCell id="oXb5ELOSUNkqxSrLmmbT-50" style="edgeStyle=orthogonalEdgeStyle;rounded=0;orthogonalLoop=1;jettySize=auto;html=1;entryX=0.5;entryY=0;entryDx=0;entryDy=0;" edge="1" parent="1" source="oXb5ELOSUNkqxSrLmmbT-30" target="oXb5ELOSUNkqxSrLmmbT-48">
          <mxGeometry relative="1" as="geometry" />
        </mxCell>
        <mxCell id="oXb5ELOSUNkqxSrLmmbT-30" value="&lt;span style=&quot;font-size: 18px;&quot;&gt;Нажимает кнопку &quot;Сохранить&quot;&lt;/span&gt;" style="rounded=0;whiteSpace=wrap;html=1;" vertex="1" parent="1">
          <mxGeometry x="546.24" y="340" width="170" height="60" as="geometry" />
        </mxCell>
        <mxCell id="oXb5ELOSUNkqxSrLmmbT-47" style="edgeStyle=orthogonalEdgeStyle;rounded=0;orthogonalLoop=1;jettySize=auto;html=1;entryX=0;entryY=0.5;entryDx=0;entryDy=0;" edge="1" parent="1" source="oXb5ELOSUNkqxSrLmmbT-45" target="oXb5ELOSUNkqxSrLmmbT-30">
          <mxGeometry relative="1" as="geometry">
            <mxPoint x="310" y="390" as="targetPoint" />
            <Array as="points">
              <mxPoint x="228" y="370" />
            </Array>
          </mxGeometry>
        </mxCell>
        <mxCell id="oXb5ELOSUNkqxSrLmmbT-45" value="&lt;span style=&quot;font-size: 18px;&quot;&gt;Выбирает файл из своего компьютера&lt;/span&gt;" style="rounded=0;whiteSpace=wrap;html=1;" vertex="1" parent="1">
          <mxGeometry x="142.5" y="215" width="170" height="60" as="geometry" />
        </mxCell>
        <mxCell id="oXb5ELOSUNkqxSrLmmbT-52" style="edgeStyle=orthogonalEdgeStyle;rounded=0;orthogonalLoop=1;jettySize=auto;html=1;entryX=0.5;entryY=0;entryDx=0;entryDy=0;" edge="1" parent="1" source="oXb5ELOSUNkqxSrLmmbT-48" target="oXb5ELOSUNkqxSrLmmbT-51">
          <mxGeometry relative="1" as="geometry" />
        </mxCell>
        <mxCell id="oXb5ELOSUNkqxSrLmmbT-48" value="&lt;span style=&quot;font-size: 18px;&quot;&gt;Тест успешно сохранён&lt;/span&gt;" style="rounded=0;whiteSpace=wrap;html=1;" vertex="1" parent="1">
          <mxGeometry x="546.24" y="440" width="170" height="60" as="geometry" />
        </mxCell>
        <mxCell id="oXb5ELOSUNkqxSrLmmbT-53" style="edgeStyle=orthogonalEdgeStyle;rounded=0;orthogonalLoop=1;jettySize=auto;html=1;entryX=0.5;entryY=0;entryDx=0;entryDy=0;" edge="1" parent="1" source="oXb5ELOSUNkqxSrLmmbT-51" target="oXb5ELOSUNkqxSrLmmbT-22">
          <mxGeometry relative="1" as="geometry">
            <mxPoint x="440" y="50" as="targetPoint" />
            <Array as="points">
              <mxPoint x="791" y="595" />
              <mxPoint x="791" y="50" />
              <mxPoint x="425" y="50" />
            </Array>
          </mxGeometry>
        </mxCell>
        <mxCell id="oXb5ELOSUNkqxSrLmmbT-56" value="Да" style="edgeLabel;html=1;align=center;verticalAlign=middle;resizable=0;points=[];fontSize=16;" vertex="1" connectable="0" parent="oXb5ELOSUNkqxSrLmmbT-53">
          <mxGeometry x="-0.9259" y="2" relative="1" as="geometry">
            <mxPoint as="offset" />
          </mxGeometry>
        </mxCell>
        <mxCell id="oXb5ELOSUNkqxSrLmmbT-58" style="edgeStyle=orthogonalEdgeStyle;rounded=0;orthogonalLoop=1;jettySize=auto;html=1;entryX=1;entryY=0.5;entryDx=0;entryDy=0;" edge="1" parent="1" source="oXb5ELOSUNkqxSrLmmbT-51" target="oXb5ELOSUNkqxSrLmmbT-57">
          <mxGeometry relative="1" as="geometry" />
        </mxCell>
        <mxCell id="oXb5ELOSUNkqxSrLmmbT-59" value="Нет" style="edgeLabel;html=1;align=center;verticalAlign=middle;resizable=0;points=[];fontSize=16;" vertex="1" connectable="0" parent="oXb5ELOSUNkqxSrLmmbT-58">
          <mxGeometry x="-0.1073" y="1" relative="1" as="geometry">
            <mxPoint as="offset" />
          </mxGeometry>
        </mxCell>
        <mxCell id="oXb5ELOSUNkqxSrLmmbT-51" value="Хочет добавить ещё тесты" style="rhombus;whiteSpace=wrap;html=1;fontSize=18;rounded=0;" vertex="1" parent="1">
          <mxGeometry x="566.25" y="540" width="130" height="110" as="geometry" />
        </mxCell>
        <mxCell id="oXb5ELOSUNkqxSrLmmbT-57" value="" style="ellipse;html=1;shape=endState;fillColor=strokeColor;" vertex="1" parent="1">
          <mxGeometry x="395" y="580" width="30" height="30" as="geometry" />
        </mxCell>
      </root>
    </mxGraphModel>
  </diagram>
</mxfile>
